<svg xmlns="http://www.w3.org/2000/svg" viewBox="0 0 521.82 300.24"><defs><style>.cls-1{fill:#0058c4;}.cls-2{font-size:38.1px;font-family:Gadugi;letter-spacing:0.04em;}.cls-2,.cls-9{stroke:#000;stroke-miterlimit:10;stroke-width:0.71px;}.cls-3{letter-spacing:-0.12em;}.cls-4{letter-spacing:0.04em;}.cls-5{letter-spacing:0.1em;}.cls-6{letter-spacing:-0.06em;}.cls-7{letter-spacing:0.02em;}.cls-8{fill:#1abaf4;}</style></defs><g id="图层_2" data-name="图层 2"><g id="图层_1-2" data-name="图层 1"><path d="M102.47,132.75c0,1.61.59,1.95,2.06,1.94,6.51-.08,13,0,19.52-.08,4.27,0,8.53-.14,12.8-.33a9.16,9.16,0,0,0,7.92-4.65l22.48,6c-2.88,5.2-7.31,8.52-12.67,10.78-.52.22-1,.48-1.91.89,1.35.71,2.34,1.29,3.37,1.77,7.57,3.56,11.45,9.86,12.94,17.77.63,3.28.63,6.68,1.1,10,.5,3.46,1.22,6.89,1.85,10.32.08.47.23.93.32,1.4.2,1-.13,1.56-1.2,1.61-.85,0-1.7.12-2.55.12-6.14,0-12.28,0-18.42.05-1.56,0-2.17-.55-2.38-2.05-.73-5.39-1.5-10.78-2.38-16.14a47.81,47.81,0,0,0-1.62-6.68c-2.12-6.68-7-10.33-13.64-11.63-7.32-1.43-14.78-1-22.19-1-1.13,0-2.26.11-3.37,0-1.59-.16-2,.56-2,2,.07,2.77,0,5.55,0,8.33q0,12.41,0,24.82c0,2.28-.1,2.38-2.32,2.38-5.6,0-11.21-.05-16.81,0-1.58,0-2.23-.51-2.23-2.1,0-3-.16-6-.16-9"/><path d="M261.55,158.14c0-9.71-.15-19.42.05-29.13.12-5.86.57-11.81,2.91-17.27,4.3-10,12.05-16.17,22.61-18.8a71.25,71.25,0,0,1,17-1.85c11.79,0,23.57-.25,35.35-.38,2.56,0,2.57,0,2.56,2.59,0,4.59,0,9.18,0,13.77,0,1.52-.54,2-2.09,2-9.87-.07-19.75-.22-29.61,0a107.06,107.06,0,0,0-15.88,1.58c-6.5,1.13-10.36,5.65-11.05,12.19-.25,2.33-.14,4.69-.27,7-.07,1.22.49,1.57,1.61,1.56,3.31-.05,6.62,0,9.93,0l44.19,0c.42,0,.85,0,1.28,0,1.39,0,2,.56,1.93,2-.1,4.38,0,8.75-.06,13.13,0,3.05,0,3.06-3,3.06l-53.31-.06c-2.53,0-2.59,0-2.59,2.55q0,17,0,33.95c0,.58,0,1.17,0,1.76,0,2.19-.14,2.37-2.37,2.38-5.82,0-11.64,0-17.45,0-1.47,0-1.77-.69-1.77-2q0-15.14,0-30.26Z"/><path d="M424.43,153.85v34.26c0,2-.12,2.24-2.15,2.23-11.57,0-23.15-.12-34.73-.13-2.63,0-5.34.65-7.9.25-5.12-.78-10.37-1.45-14.77-4.59-3.48-2.49-5.43-6.09-6.92-10a34,34,0,0,1-2.2-12.68c.1-14.46.07-28.92.11-43.38,0-2.15,0-2.19,2.22-2.22,5.23-.09,10.45-.14,15.68-.2,2.33,0,2.47.08,2.48,2.4q.06,13.92.08,27.85c0,5.93.18,11.86,0,17.77-.15,4.29,3.74,9.07,8.92,8.84,5.54-.25,11.1-.17,16.64-.26,2.24,0,2.23-.08,2.23-2.24q0-25.94.06-51.87c0-2.39,0-2.45,2.38-2.47,5.33,0,10.67,0,16,0,1.46,0,1.92.57,1.91,2-.05,11.47,0,22.94,0,34.42Z"/><path d="M443.22,153.87q0-16.89,0-33.78c0-2.44,0-2.55,2.41-2.56,9.34,0,18.68-.13,28,0A167.3,167.3,0,0,1,492,118.65c9.81,1.29,15.89,7.35,17.83,17.07a66.7,66.7,0,0,1,.71,6.64c1.41,15,.23,30.14.63,45.2.08,2.82,0,2.82-2.83,2.82H492.8c-1.93,0-2.06-.1-2.06-2.11,0-13.45,0-26.9-.08-40.35a53.61,53.61,0,0,0-.57-7.49c-.57-3.88-2.63-5.88-6.54-6.3-3.17-.35-6.38-.45-9.57-.53-2.93-.07-5.87.06-8.8,0-1.08,0-1.59.4-1.6,1.48,0,.9-.05,1.81-.05,2.72q0,25.29,0,50.6c0,1.33-.28,1.92-1.74,1.91q-8.4,0-16.81.08c-1.61,0-1.82-.85-1.81-2.13q0-17.2,0-34.43Z"/><path d="M225.6,146.08c6.24,0,12.49,0,18.73,0,2.14,0,2.27.21,2.27,2.28,0,3.79,0,7.58,0,11.37,0,2-.12,2.17-2.18,2.17q-18.09,0-36.19,0c-4,0-4,.05-2.72,3.92,1.24,3.62,3.42,6.3,7.31,7.13a43.12,43.12,0,0,0,7.86,1.23c7.31.17,14.62.06,21.94.07a11.81,11.81,0,0,1,2.86.18,1.7,1.7,0,0,1,1.08,1.21c.08,4.37,0,8.75,0,13.13a1.27,1.27,0,0,1-1.46,1.46c-11-.12-22.08-.13-33.12-.43a28.86,28.86,0,0,1-12.1-3.4c-7.56-3.79-12.35-10-15.23-17.76a45,45,0,0,1-2.4-13.45c-.38-7.69.87-14.89,4.61-21.62,3.08-5.54,7.13-10.33,13.13-12.62a42.7,42.7,0,0,1,12.72-2.87c10.33-.56,20.69-.53,31-.64,2.82,0,2.8.13,2.79,2.93,0,3.58,0,7.15,0,10.73,0,2.24,0,2.31-2.34,2.33-7.73.07-15.47,0-23.21.22a38.82,38.82,0,0,0-9,1.09c-5,1.33-6.21,5.07-7.14,10-.05.28.56.94.95,1a13.58,13.58,0,0,0,2.71.11h17Z"/><path class="cls-1" d="M177.64,260.81A126.11,126.11,0,1,1,218.07,25.87a137.28,137.28,0,1,0,10.42,214.58A125.68,125.68,0,0,1,177.64,260.81Z"/><text class="cls-2" transform="translate(192.44 240.76) scale(1.17 1)">Eran<tspan class="cls-3" x="79.57" y="0"> </tspan><tspan class="cls-4" x="85.43" y="0">F</tspan><tspan class="cls-5" x="105.56" y="0">u</tspan><tspan class="cls-3" x="130.94" y="0" xml:space="preserve">n  &amp;</tspan><tspan class="cls-6" x="185.58" y="0" xml:space="preserve">  </tspan><tspan class="cls-7" x="201.88" y="0">fund</tspan></text><path class="cls-8" d="M153.84,228.93c-51.47,35.32-104.92,46.89-119.37,25.83-6.9-10.06-3.65-25.76,7.25-43.27C8.83,242.14-7.68,273.88,3.47,290.13c14.45,21.06,69.84,8.16,123.72-28.82,29.89-20.51,53-44.11,65.25-64.67A254.55,254.55,0,0,1,153.84,228.93Z"/><path d="M81,90.71v99.88h21.47V147.3h47.71c11.4,0,20.64-13.24,20.64-24.64v-3.9h0a28,28,0,0,0-28-28.05Zm52.91,44H102.47v-26h31.44a12.15,12.15,0,0,1,12.14,12.14v1.74A12.15,12.15,0,0,1,133.91,134.69Z"/><path class="cls-8" d="M306.3,12.91c-14.42-21-73.05-5.85-130.94,33.88-25.58,17.55-46.74,37-61.14,55a326.94,326.94,0,0,1,29-22.35c57.89-39.73,116.92-54.3,131.85-32.55,7.05,10.28,3,26.82-9.34,45.61C299.79,60.7,317.18,28.77,306.3,12.91Z"/><rect class="cls-9" x="205.91" y="145.81" width="40.74" height="15.78"/></g></g></svg>